<svg width="20" height="20" viewBox="0 0 20 20" fill="none" xmlns="http://www.w3.org/2000/svg">
<g id="category">
<mask id="mask0_37_43" style="mask-type:alpha" maskUnits="userSpaceOnUse" x="0" y="0" width="20" height="20">
<rect id="Bounding box" width="20" height="20" fill="#D9D9D9"/>
</mask>
<g mask="url(#mask0_37_43)">
<path id="category_2" d="M5.75 9L10 2L14.25 9H5.75ZM14.5 18C13.5278 18 12.7014 17.6597 12.0208 16.9792C11.3403 16.2986 11 15.4722 11 14.5C11 13.5278 11.3403 12.7014 12.0208 12.0208C12.7014 11.3403 13.5278 11 14.5 11C15.4722 11 16.2986 11.3403 16.9792 12.0208C17.6597 12.7014 18 13.5278 18 14.5C18 15.4722 17.6597 16.2986 16.9792 16.9792C16.2986 17.6597 15.4722 18 14.5 18ZM3 17.5V11.5H9V17.5H3ZM14.4952 16.5C15.054 16.5 15.5278 16.3072 15.9167 15.9215C16.3056 15.5356 16.5 15.0634 16.5 14.5048C16.5 13.946 16.3072 13.4722 15.9215 13.0833C15.5356 12.6944 15.0634 12.5 14.5048 12.5C13.946 12.5 13.4722 12.6928 13.0833 13.0785C12.6944 13.4644 12.5 13.9366 12.5 14.4952C12.5 15.054 12.6928 15.5278 13.0785 15.9167C13.4644 16.3056 13.9366 16.5 14.4952 16.5ZM4.5 16H7.5V13H4.5V16ZM8.41667 7.5H11.5833L10 4.89583L8.41667 7.5Z" fill="#FAFAFA"/>
</g>
</g>
</svg>
