<svg width="20" height="20" viewBox="0 0 20 20" fill="none" xmlns="http://www.w3.org/2000/svg">
<g clip-path="url(#clip0_91_114)">
<mask id="mask0_91_114" style="mask-type:alpha" maskUnits="userSpaceOnUse" x="0" y="0" width="20" height="20">
<rect width="20" height="20" fill="#D9D9D9"/>
</mask>
<g mask="url(#mask0_91_114)">
<path fill-rule="evenodd" clip-rule="evenodd" d="M6.35413 5.33334L8.68746 2.31251C8.85413 2.09028 9.05204 1.92709 9.28121 1.82292C9.51038 1.71876 9.74996 1.66667 9.99996 1.66667C10.25 1.66667 10.4895 1.71876 10.7187 1.82292C10.9479 1.92709 11.1458 2.09028 11.3125 2.31251L13.6458 5.33334L17.1875 6.52084C17.5486 6.63195 17.8333 6.83681 18.0416 7.13542C18.25 7.43403 18.3541 7.76389 18.3541 8.125C18.3541 8.29167 18.3298 8.45834 18.2812 8.62501C18.2326 8.79167 18.1527 8.95139 18.0416 9.10417L15.75 12.3542L15.8333 15.7708C15.8472 16.257 15.6875 16.6667 15.3541 17C15.0208 17.3333 14.6319 17.5 14.1875 17.5C14.1597 17.5 14.0069 17.4792 13.7291 17.4375L9.99996 16.3958L6.27079 17.4375C6.20135 17.4653 6.12496 17.4826 6.04163 17.4896C5.95829 17.4965 5.8819 17.5 5.81246 17.5C5.36802 17.5 4.97913 17.3333 4.64579 17C4.31246 16.6667 4.15274 16.257 4.16663 15.7708L4.24996 12.3333L1.97913 9.10417C1.86801 8.95139 1.78815 8.79167 1.73954 8.62501C1.69093 8.45834 1.66663 8.29167 1.66663 8.125C1.66663 7.77778 1.76732 7.45487 1.96871 7.15626C2.1701 6.85764 2.45135 6.64584 2.81246 6.52084L6.35413 5.33334ZM8.21855 11.8021C8.73938 11.4062 9.33313 11.2083 9.9998 11.2083C10.6665 11.2083 11.2602 11.4062 11.781 11.8021C12.3019 12.1979 12.6804 12.7083 12.9165 13.3333L7.08313 13.3333C7.31924 12.7083 7.69771 12.1979 8.21855 11.8021ZM7.91654 9.99998C8.26377 9.99998 8.55891 9.87846 8.80196 9.6354C9.04502 9.39235 9.16654 9.09721 9.16654 8.74998C9.16654 8.40276 9.04502 8.10762 8.80196 7.86457C8.55891 7.62151 8.26377 7.49998 7.91654 7.49998C7.56932 7.49998 7.27418 7.62151 7.03113 7.86457C6.78807 8.10762 6.66654 8.40276 6.66654 8.74998C6.66654 9.09721 6.78807 9.39235 7.03113 9.6354C7.27418 9.87846 7.56932 9.99998 7.91654 9.99998ZM12.0832 9.99998C12.4304 9.99998 12.7256 9.87846 12.9686 9.6354C13.2117 9.39235 13.3332 9.09721 13.3332 8.74998C13.3332 8.40276 13.2117 8.10762 12.9686 7.86457C12.7256 7.62151 12.4304 7.49998 12.0832 7.49998C11.736 7.49998 11.4408 7.62151 11.1978 7.86457C10.9547 8.10762 10.8332 8.40276 10.8332 8.74998C10.8332 9.09721 10.9547 9.39235 11.1978 9.6354C11.4408 9.87846 11.736 9.99998 12.0832 9.99998Z" fill="#FAFAFA"/>
</g>
</g>
<defs>
<clipPath id="clip0_91_114">
<rect width="20" height="20" fill="white"/>
</clipPath>
</defs>
</svg>
