<svg width="20" height="20" viewBox="0 0 20 20" fill="none" xmlns="http://www.w3.org/2000/svg">
<g id="family_star">
<mask id="mask0_37_38" style="mask-type:alpha" maskUnits="userSpaceOnUse" x="0" y="0" width="20" height="20">
<rect id="Bounding box" width="20" height="20" fill="#D9D9D9"/>
</mask>
<g mask="url(#mask0_37_38)">
<path id="family_star_2" d="M10.0019 13C10.6256 13 11.1806 12.8125 11.6667 12.4375C12.1528 12.0625 12.5139 11.5834 12.75 11H7.25C7.48611 11.5834 7.84785 12.0625 8.33521 12.4375C8.82257 12.8125 9.37812 13 10.0019 13ZM8 10C8.27778 10 8.51389 9.9028 8.70833 9.70835C8.90278 9.51391 9 9.2778 9 9.00002C9 8.72224 8.90278 8.48613 8.70833 8.29169C8.51389 8.09724 8.27778 8.00002 8 8.00002C7.72222 8.00002 7.48611 8.09724 7.29167 8.29169C7.09722 8.48613 7 8.72224 7 9.00002C7 9.2778 7.09722 9.51391 7.29167 9.70835C7.48611 9.9028 7.72222 10 8 10ZM12 10C12.2778 10 12.5139 9.9028 12.7083 9.70835C12.9028 9.51391 13 9.2778 13 9.00002C13 8.72224 12.9028 8.48613 12.7083 8.29169C12.5139 8.09724 12.2778 8.00002 12 8.00002C11.7222 8.00002 11.4861 8.09724 11.2917 8.29169C11.0972 8.48613 11 8.72224 11 9.00002C11 9.2778 11.0972 9.51391 11.2917 9.70835C11.4861 9.9028 11.7222 10 12 10ZM6.54167 5.45835L8.83333 2.50002C8.98347 2.29933 9.16188 2.1519 9.36854 2.05773C9.57507 1.9637 9.79097 1.91669 10.0163 1.91669C10.2415 1.91669 10.4549 1.9653 10.6562 2.06252C10.8576 2.15974 11.0347 2.30558 11.1875 2.50002L13.4792 5.45835L16.9792 6.60419C17.2986 6.7153 17.5486 6.90072 17.7292 7.16044C17.9097 7.42002 18 7.70683 18 8.02085C18 8.16974 17.979 8.3187 17.9369 8.46773C17.8947 8.61662 17.8254 8.75933 17.7292 8.89585L15.4792 12.0417L15.5625 15.4167C15.5625 15.8472 15.4167 16.2118 15.125 16.5104C14.8333 16.809 14.4849 16.9584 14.0796 16.9584C14.0543 16.9584 13.9236 16.9375 13.6875 16.8959L10 15.875L6.31146 16.8967C6.24271 16.9239 6.17708 16.941 6.11458 16.9479C6.05208 16.9549 5.98938 16.9584 5.92646 16.9584C5.52382 16.9584 5.17153 16.809 4.86958 16.5104C4.56764 16.2118 4.42361 15.8472 4.4375 15.4167L4.52083 12.0417L2.27083 8.89585C2.17361 8.75697 2.10417 8.61808 2.0625 8.47919C2.02083 8.3403 2 8.19426 2 8.04106C2 7.72203 2.09153 7.43044 2.27458 7.16627C2.45764 6.9021 2.71333 6.71474 3.04167 6.60419L6.54167 5.45835Z" fill="#FAFAFA"/>
</g>
</g>
</svg>
